<svg width="20" height="20" viewBox="0 0 20 20" fill="none" xmlns="http://www.w3.org/2000/svg">
<path d="M4.15146 5.9975C5.15846 5.9975 5.97479 5.18116 5.97479 4.17416C5.97479 3.16716 5.15846 2.35083 4.15146 2.35083C3.14446 2.35083 2.32812 3.16716 2.32812 4.17416C2.32812 5.18116 3.14446 5.9975 4.15146 5.9975Z" fill="#FF5029"/>
<path d="M7.69646 7.37915V17.495H10.8373V12.4925C10.8373 11.1725 11.0856 9.89415 12.7223 9.89415C14.3365 9.89415 14.3565 11.4033 14.3565 12.5758V17.4958H17.499V11.9483C17.499 9.22332 16.9123 7.12915 13.7273 7.12915C12.1981 7.12915 11.1731 7.96832 10.754 8.76248H10.7115V7.37915H7.69646ZM2.57812 7.37915H5.72396V17.495H2.57812V7.37915Z" fill="#FF5029"/>
</svg>
