<svg width="20" height="20" viewBox="0 0 20 20" fill="none" xmlns="http://www.w3.org/2000/svg">
<path d="M10.0009 6.14746C7.8726 6.14746 6.14844 7.87246 6.14844 9.99996C6.14844 12.1283 7.8726 13.8533 10.0009 13.8533C12.1276 13.8533 13.8534 12.1283 13.8534 9.99996C13.8534 7.87246 12.1276 6.14746 10.0009 6.14746ZM10.0009 12.5033C8.61844 12.5033 7.4976 11.3825 7.4976 10.0008C7.4976 8.61829 8.61844 7.49829 10.0009 7.49829C11.3834 7.49829 12.5026 8.61829 12.5026 10.0008C12.5026 11.3825 11.3834 12.5033 10.0009 12.5033Z" fill="#FF5029"/>
<path d="M14.0077 6.90421C14.5038 6.90421 14.906 6.50201 14.906 6.00588C14.906 5.50974 14.5038 5.10754 14.0077 5.10754C13.5116 5.10754 13.1094 5.50974 13.1094 6.00588C13.1094 6.50201 13.5116 6.90421 14.0077 6.90421Z" fill="#FF5029"/>
<path d="M17.1092 5.09248C16.7183 4.08498 15.9225 3.28832 14.915 2.89915C14.3325 2.67998 13.7167 2.56248 13.0933 2.54915C12.2908 2.51415 12.0367 2.50415 10.0017 2.50415C7.96667 2.50415 7.70583 2.50415 6.91 2.54915C6.28833 2.56165 5.6725 2.67915 5.09 2.89915C4.08167 3.28832 3.28583 4.08498 2.89583 5.09248C2.67667 5.67582 2.55917 6.29082 2.54667 6.91415C2.51083 7.71582 2.5 7.96998 2.5 10.0058C2.5 12.0408 2.5 12.3 2.54667 13.0975C2.55917 13.7208 2.67667 14.3358 2.89583 14.92C3.28667 15.9267 4.0825 16.7233 5.09083 17.1133C5.67083 17.34 6.28667 17.4683 6.91167 17.4883C7.71417 17.5233 7.96833 17.5342 10.0033 17.5342C12.0383 17.5342 12.2992 17.5342 13.095 17.4883C13.7175 17.4758 14.3333 17.3575 14.9167 17.1392C15.9242 16.7483 16.72 15.9525 17.1108 14.945C17.33 14.3617 17.4475 13.7467 17.46 13.1233C17.4958 12.3217 17.5067 12.0675 17.5067 10.0317C17.5067 7.99582 17.5067 7.73748 17.46 6.93998C17.4492 6.30832 17.3325 5.68248 17.1092 5.09248ZM16.0942 13.0358C16.0883 13.5158 16.0017 13.9917 15.835 14.4425C15.5808 15.0983 15.0633 15.6166 14.4083 15.8683C13.9625 16.0342 13.4925 16.1208 13.0167 16.1275C12.225 16.1642 12.0017 16.1733 9.97167 16.1733C7.94 16.1733 7.7325 16.1733 6.92583 16.1275C6.45167 16.1217 5.98 16.0342 5.535 15.8683C4.8775 15.6175 4.35667 15.0992 4.1025 14.4425C3.93917 13.9975 3.85083 13.5267 3.84333 13.0517C3.8075 12.26 3.79917 12.0367 3.79917 10.0067C3.79917 7.97582 3.79917 7.76832 3.84333 6.96082C3.84917 6.48082 3.93583 6.00582 4.1025 5.55498C4.35667 4.89748 4.8775 4.37998 5.535 4.12832C5.98 3.96332 6.45167 3.87582 6.92583 3.86915C7.71833 3.83332 7.94083 3.82332 9.97167 3.82332C12.0025 3.82332 12.2108 3.82332 13.0167 3.86915C13.4925 3.87498 13.9625 3.96248 14.4083 4.12832C15.0633 4.38082 15.5808 4.89915 15.835 5.55498C15.9983 5.99998 16.0867 6.47082 16.0942 6.94582C16.13 7.73832 16.1392 7.96082 16.1392 9.99165C16.1392 12.0217 16.1392 12.24 16.1033 13.0367H16.0942V13.0358Z" fill="#FF5029"/>
</svg>
