<svg width="20" height="20" viewBox="0 0 20 20" fill="none" xmlns="http://www.w3.org/2000/svg">
<path d="M16.3582 6.66412C16.3691 6.80995 16.3691 6.95495 16.3691 7.09995C16.3691 11.5375 12.9916 16.6508 6.81906 16.6508C4.9174 16.6508 3.15073 16.1 1.66406 15.1433C1.93406 15.1741 2.19406 15.185 2.4749 15.185C4.04406 15.185 5.48823 14.655 6.6424 13.7508C5.16656 13.72 3.9299 12.7533 3.50323 11.4233C3.71073 11.4541 3.91906 11.475 4.1374 11.475C4.43823 11.475 4.74073 11.4333 5.02156 11.3608C3.4824 11.0491 2.3299 9.69829 2.3299 8.06662V8.02495C2.7774 8.27412 3.29656 8.42995 3.84656 8.45079C2.9424 7.84912 2.3499 6.81995 2.3499 5.65579C2.3499 5.03245 2.51573 4.46079 2.80656 3.96245C4.45906 5.99829 6.94323 7.32912 9.72823 7.47495C9.67656 7.22495 9.6449 6.96579 9.6449 6.70579C9.6449 4.85579 11.1416 3.34912 13.0016 3.34912C13.9682 3.34912 14.8407 3.75412 15.4541 4.40912C16.2124 4.26329 16.9391 3.98245 17.5841 3.59829C17.3349 4.37745 16.8041 5.03245 16.1082 5.44829C16.7841 5.37495 17.4391 5.18829 18.0407 4.92829C17.5841 5.59329 17.0132 6.18579 16.3582 6.66412Z" fill="#FF5029"/>
</svg>
