<svg width="74" height="39" viewBox="0 0 74 39" fill="none" xmlns="http://www.w3.org/2000/svg">
<path d="M68.8636 0.874377L36.9967 31.957L5.12986 0.874377C4.5605 0.317912 3.79619 0.00637938 3.0003 0.00637938C2.20441 0.00637938 1.44009 0.317912 0.870737 0.874377C0.595056 1.14465 0.376044 1.46725 0.226528 1.82329C0.0770127 2.17932 0 2.56163 0 2.94782C0 3.33401 0.0770127 3.71632 0.226528 4.07236C0.376044 4.42839 0.595056 4.75099 0.870737 5.02127L34.7715 38.0944C35.3669 38.675 36.1654 39 36.9967 39C37.8281 39 38.6266 38.675 39.2219 38.0944L73.1227 5.02765C73.4004 4.75717 73.621 4.43378 73.7717 4.07656C73.9224 3.71935 74 3.33555 74 2.94782C74 2.5601 73.9224 2.1763 73.7717 1.81908C73.621 1.46187 73.4004 1.13847 73.1227 0.867994C72.5534 0.311529 71.7891 0 70.9932 0C70.1973 0 69.433 0.311529 68.8636 0.867994V0.874377Z" fill="black"/>
</svg>
